<svg xmlns="http://www.w3.org/2000/svg" width="512" height="512" id="introduce"><path d="M473.155 322.965L396.99 200.451C397.973 199.36 399.567 198.504 400.774 197.662L539.657 94.5313C541.537 93.1724 543.249 92.2357 545.484 91.6L547.969 91.5573C552.743 91.8328 555.139 96.4255 555.333 100.704L555.367 368.726C555.381 386.963 557.559 388.374 536.41 388.403 529.435 388.412 522.195 388.793 515.256 388.11 509.077 383.84 504.09 372.493 500.09 366.15L473.155 322.965zM160.904 332.779L147.114 356.551C144.226 361.592 130.522 387.884 126.848 389.445 124.931 390.26 121.942 389.971 119.856 389.982L106.719 390.016C93.2531 390.073 85.101 393.928 85.018 376.287L84.9455 129.179C85.0623 123.852 87.7688 120.53 92.991 119.111L96.0251 119.109C102.942 119.825 121.442 135.711 127.543 140.287L206.788 200.104C213.621 205.347 221.254 210.359 226.871 216.915 225.817 221.834 222.969 226.461 220.478 230.802L160.904 332.779zM394.373 328.543L364.244 300.95C357.038 294.368 350.134 287.293 341.916 281.957 330.36 274.453 312.641 273.819 301.772 282.883 296.568 287.222 292.546 293.1 288.436 298.438L272.156 319.435C263.413 330.766 258.02 337.123 242.246 334.383 228.137 331.932 218.24 318.224 208.953 308.549 204.948 304.378 200.329 300.206 196.98 295.504 203.82 284.155 207.675 288.105 211.547 272.5 214.309 261.367 219.856 251.504 224.943 241.307L234.982 221.119C241.266 216.144 298.269 202.828 312.988 201.691L343.188 201.71C345.373 201.803 347.468 202.348 349.64 202.47L380.413 203.26C382.723 203.285 385.039 203.187 387.297 203.743 391.779 209.119 395.105 215.601 398.753 221.562L497.995 380.305 469.445 398.317C468.885 398.082 468.481 397.34 468.094 396.855 463.601 391.22 458.395 387.07 453.146 382.178L394.373 328.543z" transform="scale(.8)"></path><path d="M267.794 537.609C255.722 533.485 245.108 523.405 242.681 510.49C240.595 499.386 243.647 495.171 228.542 496.904C210.986 498.919 195.9 489.281 190.86 471.81C189.84 468.277 189.806 464.669 189.348 461.049C188.315 452.874 182.928 455.855 176.882 453.552C163.378 448.407 156.671 432.611 156.89 419.062C156.963 414.581 157.645 410.168 157.959 405.704L139.369 388.567C141.075 386.355 142.482 383.739 143.884 381.32L184.679 310.156C186.234 307.225 187.585 304.273 189.397 301.478L219.889 332.415C231.938 342.935 251.938 349.057 266.273 339.298C272.991 334.724 278.017 326.886 282.993 320.57L305.838 291.984C310.06 287.188 314.703 286.129 320.865 285.762C339.454 285.929 351.208 301.517 363.824 313.113L440.352 382.594C458.204 398.749 481.871 414.215 471.713 442.429C463.4 465.519 441.017 468.207 420.264 463.488C406.437 460.343 421.715 486.831 402.647 498.38C396.697 501.984 387.433 502.325 380.652 500.63L374.062 498.668C359.193 493.467 364.25 497.7 362.625 511.156C361.479 520.652 355.39 528.316 346.42 531.854C332.813 537.221 318.492 529.206 306.179 523.92C298.133 536.908 282.08 541.094 267.794 537.609Z" transform="scale(.8)"></path></svg>